<svg width="256" height="256" viewBox="0 0 256 256" fill="none" xmlns="http://www.w3.org/2000/svg">
<rect width="256" height="256" rx="60" fill="#F2F2F2"/>
<path d="M179.99 71.8974C173.636 65.8273 166.056 61.157 157.226 57.8866C148.408 54.6289 138.668 53 127.994 53C116.826 53 106.783 54.7561 97.9026 58.2811C89.0092 61.806 81.4549 66.6545 75.2396 72.8645C69.0117 79.0746 64.2491 86.3663 60.952 94.7397C57.6549 103.113 56 112.161 56 121.883C56 132.242 57.6801 141.646 61.0531 150.083C64.4134 158.52 69.2138 165.748 75.4291 171.767C81.6444 177.786 89.2113 182.418 98.0921 185.676C104.977 188.196 112.506 189.736 120.679 190.308L184.752 223V189.227L166.511 181.159C171.703 178.27 176.364 174.821 180.47 170.813C186.761 164.679 191.574 157.413 194.947 149.039C198.307 140.666 200 131.618 200 121.896C200 111.537 198.257 102.133 194.757 93.6962C191.258 85.2337 186.344 77.9802 179.99 71.8974ZM101.427 151.33C98.1932 147.945 95.6793 143.784 93.8981 138.859C92.1169 133.934 91.2326 128.271 91.2326 121.883C91.2326 115.355 92.1548 109.603 93.9991 104.615C95.8435 99.6262 98.3827 95.4396 101.617 92.0418C104.851 88.6569 108.729 86.099 113.239 84.3684C117.749 82.6377 122.663 81.7724 127.994 81.7724C133.325 81.7724 138.251 82.6631 142.761 84.4574C147.271 86.2517 151.137 88.835 154.383 92.2327C157.617 95.6177 160.157 99.8171 162.001 104.806C163.845 109.794 164.767 115.482 164.767 121.883C164.767 128.411 163.845 134.163 162.001 139.152C160.157 144.14 157.592 148.327 154.282 151.724C150.985 155.109 147.069 157.642 142.572 159.309C138.062 160.976 133.211 161.803 128.006 161.803C122.549 161.803 117.559 160.912 113.049 159.118C108.539 157.311 104.661 154.728 101.427 151.33Z" fill="#262626"/>
</svg>
