<?xml version="1.0" encoding="utf-8"?>
<!-- Generator: Adobe Illustrator 24.3.0, SVG Export Plug-In . SVG Version: 6.00 Build 0)  -->
<svg version="1.1" fill="#262626" xmlns="http://www.w3.org/2000/svg" xmlns:xlink="http://www.w3.org/1999/xlink" x="0px" y="0px"
	 viewBox="0 0 312.1 133.58" style="enable-background:new 0 0 312.1 133.58;" xml:space="preserve">
<g>
	<path d="M98.15,14.85c-5.03-4.77-11.03-8.44-18.02-11.01C73.15,1.28,65.44,0,56.99,0C48.15,0,40.2,1.38,33.17,4.15
		c-7.04,2.77-13.02,6.58-17.94,11.46c-4.93,4.88-8.7,10.61-11.31,17.19C1.31,39.38,0,46.49,0,54.13c0,8.14,1.33,15.53,4,22.16
		c2.66,6.63,6.46,12.31,11.38,17.04c4.92,4.73,10.91,8.37,17.94,10.93c5.45,1.98,11.41,3.19,17.88,3.64l50.72,25.69v-26.54
		l-14.44-6.34c4.11-2.27,7.8-4.98,11.05-8.13c4.98-4.82,8.79-10.53,11.46-17.11c2.66-6.58,4-13.69,4-21.33
		c0-8.14-1.38-15.53-4.15-22.16C107.07,25.33,103.18,19.63,98.15,14.85z M35.96,77.27c-2.56-2.66-4.55-5.93-5.96-9.8
		c-1.41-3.87-2.11-8.32-2.11-13.34c0-5.13,0.73-9.65,2.19-13.57c1.46-3.92,3.47-7.21,6.03-9.88c2.56-2.66,5.63-4.67,9.2-6.03
		c3.57-1.36,7.46-2.04,11.68-2.04c4.22,0,8.12,0.7,11.69,2.11c3.57,1.41,6.63,3.44,9.2,6.11c2.56,2.66,4.57,5.96,6.03,9.88
		c1.46,3.92,2.19,8.39,2.19,13.42c0,5.13-0.73,9.65-2.19,13.57c-1.46,3.92-3.49,7.21-6.11,9.88c-2.61,2.66-5.71,4.65-9.27,5.96
		c-3.57,1.31-7.41,1.96-11.53,1.96c-4.32,0-8.27-0.7-11.84-2.11C41.59,81.97,38.52,79.94,35.96,77.27z"/>
	<path d="M186.2,53.98c-2.11-2.31-4.52-4.22-7.24-5.73c-2.71-1.51-5.5-2.81-8.37-3.92c-2.86-1.1-5.65-2.11-8.37-3.02
		c-2.71-0.9-5.13-1.86-7.24-2.86c-2.11-1-3.82-2.19-5.13-3.54c-1.31-1.36-1.96-2.99-1.96-4.9c0-1.1,0.23-2.08,0.68-2.94
		c0.45-0.85,1.06-1.56,1.81-2.11c0.75-0.55,1.68-0.95,2.79-1.21c1.1-0.25,2.26-0.38,3.47-0.38c3.21,0,6.05,0.81,8.52,2.41
		c2.46,1.61,4.7,3.87,6.71,6.78l17.49-15.53c-0.8-1.71-2.04-3.54-3.69-5.5c-1.66-1.96-3.79-3.79-6.41-5.5
		c-2.62-1.71-5.8-3.14-9.57-4.3C165.92,0.58,161.48,0,156.35,0c-5.23,0-10.08,0.65-14.55,1.96c-4.47,1.31-8.32,3.27-11.53,5.88
		c-3.22,2.62-5.73,5.86-7.54,9.73c-1.81,3.87-2.71,8.32-2.71,13.34c0,4.32,0.63,8.04,1.88,11.16c1.26,3.12,2.94,5.83,5.05,8.14
		c2.11,2.31,4.5,4.25,7.16,5.8c2.66,1.56,5.4,2.97,8.22,4.22c2.81,1.26,5.55,2.39,8.22,3.39c2.66,1.01,5.05,2.11,7.16,3.32
		c2.11,1.21,3.79,2.54,5.05,4c1.26,1.46,1.88,3.24,1.88,5.35c0,1.31-0.25,2.49-0.75,3.54c-0.5,1.06-1.26,1.94-2.26,2.64
		c-1.01,0.7-2.19,1.26-3.54,1.66c-1.36,0.4-2.89,0.6-4.6,0.6c-2.51,0-4.8-0.4-6.86-1.21c-2.06-0.8-3.9-1.86-5.5-3.17
		c-1.61-1.31-2.97-2.71-4.07-4.22c-1.11-1.51-2.06-3.02-2.86-4.52l-18.39,17.04c1.21,2.31,2.79,4.62,4.75,6.94
		c1.96,2.31,4.45,4.4,7.46,6.26c3.02,1.86,6.58,3.37,10.71,4.52c4.12,1.15,8.9,1.73,14.32,1.73c6.03,0,11.51-0.75,16.43-2.26
		c4.92-1.51,9.17-3.72,12.74-6.63c3.57-2.91,6.31-6.51,8.22-10.78c1.91-4.27,2.86-9.17,2.86-14.7c0-4.52-0.65-8.37-1.96-11.53
		C190.02,59.03,188.31,56.29,186.2,53.98z"/>
	<path d="M307.95,31.96c-2.77-6.63-6.66-12.34-11.68-17.11c-5.03-4.77-11.03-8.44-18.02-11.01C271.26,1.28,263.55,0,255.1,0
		c-8.85,0-16.79,1.38-23.82,4.15c-7.04,2.77-13.02,6.58-17.94,11.46c-4.93,4.88-8.7,10.61-11.31,17.19
		c-2.62,6.58-3.92,13.7-3.92,21.33c0,8.14,1.33,15.53,4,22.16c2.66,6.63,6.46,12.31,11.38,17.04c4.92,4.73,10.9,8.37,17.94,10.93
		c7.03,2.56,14.93,3.84,23.67,3.84c8.75,0,16.61-1.38,23.6-4.15c6.99-2.76,12.97-6.56,17.94-11.38s8.79-10.53,11.46-17.11
		c2.66-6.58,4-13.69,4-21.33C312.1,45.99,310.71,38.6,307.95,31.96z M282.02,67.7c-1.46,3.92-3.49,7.21-6.11,9.88
		c-2.62,2.66-5.71,4.65-9.27,5.96c-3.57,1.31-7.41,1.96-11.53,1.96c-4.32,0-8.27-0.7-11.83-2.11c-3.57-1.41-6.63-3.44-9.2-6.11
		c-2.56-2.66-4.55-5.93-5.96-9.8c-1.41-3.87-2.11-8.32-2.11-13.34c0-5.13,0.73-9.65,2.19-13.57c1.46-3.92,3.47-7.21,6.03-9.88
		c2.56-2.66,5.63-4.67,9.2-6.03c3.57-1.36,7.46-2.04,11.68-2.04s8.12,0.7,11.68,2.11c3.57,1.41,6.63,3.44,9.2,6.11
		c2.56,2.66,4.57,5.96,6.03,9.88c1.46,3.92,2.19,8.39,2.19,13.42C284.2,59.25,283.47,63.78,282.02,67.7z"/>
</g>
</svg>
